M48
; DRILL file {KiCad (5.1.6)-1} date 10/11/22 10:20:55
; FORMAT={-:-/ absolute / metric / decimal}
; #@! TF.CreationDate,2022-10-11T10:20:55-04:00
; #@! TF.GenerationSoftware,Kicad,Pcbnew,(5.1.6)-1
; #@! TF.FileFunction,Plated,1,2,PTH
FMAT,2
METRIC
T1C0.400
T2C1.000
T3C2.480
T4C2.690
T5C2.766
T6C2.820
T7C3.200
%
G90
G05
T1
X183.2Y-82.9
X184.9Y-97.8
X185.1Y-85.0
X186.4Y-88.0
X188.9Y-79.6
X190.0Y-96.8
X192.6Y-96.8
X194.2Y-85.4
X195.675Y-99.125
X196.0Y-90.325
X196.8Y-89.4
X199.8Y-79.5
X201.4Y-100.9
X201.9Y-86.9
X202.7Y-80.6
X203.1Y-85.8
X204.1Y-85.0
X206.7Y-79.875
X206.7Y-81.8
X206.7Y-87.1
X207.7Y-74.3
X207.887Y-81.813
X207.963Y-76.463
X209.1Y-80.4
X209.8Y-86.7
X211.3Y-85.5
X211.3Y-101.4
T2
X187.0Y-74.0
X187.0Y-76.5
X187.0Y-79.0
X178.16Y-85.9
X180.7Y-85.9
X183.24Y-85.9
X215.3Y-66.46
X215.3Y-69.23
X215.3Y-72.0
X215.3Y-74.77
X215.3Y-77.54
X215.3Y-80.31
X215.3Y-83.08
X215.3Y-85.85
X215.3Y-88.62
X215.3Y-91.39
X215.3Y-94.16
X215.3Y-96.93
X215.3Y-99.7
X217.84Y-67.845
X217.84Y-70.615
X217.84Y-73.385
X217.84Y-76.155
X217.84Y-78.925
X217.84Y-81.695
X217.84Y-84.465
X217.84Y-87.235
X217.84Y-90.005
X217.84Y-92.775
X217.84Y-95.545
X217.84Y-98.315
T3
X161.65Y-61.45
X161.65Y-69.95
X161.65Y-75.95
X161.65Y-84.45
T4
X169.3Y-65.7
X169.3Y-80.2
T5
X180.0Y-72.1
X180.0Y-80.9
T6
X164.8Y-65.7
X164.8Y-80.2
T7
X216.57Y-59.56
X216.57Y-106.6
T0
M30
