%TF.GenerationSoftware,KiCad,Pcbnew,(5.1.6)-1*%
%TF.CreationDate,2022-10-11T10:20:53-04:00*%
%TF.ProjectId,AP420-renewed,41503432-302d-4726-956e-657765642e6b,rev?*%
%TF.SameCoordinates,Original*%
%TF.FileFunction,Soldermask,Top*%
%TF.FilePolarity,Negative*%
%FSLAX46Y46*%
G04 Gerber Fmt 4.6, Leading zero omitted, Abs format (unit mm)*
G04 Created by KiCad (PCBNEW (5.1.6)-1) date 2022-10-11 10:20:53*
%MOMM*%
%LPD*%
G01*
G04 APERTURE LIST*
%ADD10R,0.750000X2.050000*%
%ADD11R,1.600000X1.600000*%
%ADD12C,1.600000*%
%ADD13C,4.900000*%
%ADD14R,2.300000X2.900000*%
%ADD15R,2.900000X2.700000*%
%ADD16C,1.800000*%
%ADD17C,4.330000*%
%ADD18C,4.135000*%
%ADD19C,3.820000*%
%ADD20R,0.750000X1.625000*%
%ADD21C,4.249000*%
G04 APERTURE END LIST*
%TO.C,C1*%
G36*
G01*
X189550000Y-89615625D02*
X189550000Y-90784375D01*
G75*
G02*
X189284375Y-91050000I-265625J0D01*
G01*
X187115625Y-91050000D01*
G75*
G02*
X186850000Y-90784375I0J265625D01*
G01*
X186850000Y-89615625D01*
G75*
G02*
X187115625Y-89350000I265625J0D01*
G01*
X189284375Y-89350000D01*
G75*
G02*
X189550000Y-89615625I0J-265625D01*
G01*
G37*
G36*
G01*
X185950000Y-89615625D02*
X185950000Y-90784375D01*
G75*
G02*
X185684375Y-91050000I-265625J0D01*
G01*
X183515625Y-91050000D01*
G75*
G02*
X183250000Y-90784375I0J265625D01*
G01*
X183250000Y-89615625D01*
G75*
G02*
X183515625Y-89350000I265625J0D01*
G01*
X185684375Y-89350000D01*
G75*
G02*
X185950000Y-89615625I0J-265625D01*
G01*
G37*
%TD*%
%TO.C,C2*%
G36*
G01*
X196925000Y-80321738D02*
X196925000Y-81278262D01*
G75*
G02*
X196653262Y-81550000I-271738J0D01*
G01*
X195946738Y-81550000D01*
G75*
G02*
X195675000Y-81278262I0J271738D01*
G01*
X195675000Y-80321738D01*
G75*
G02*
X195946738Y-80050000I271738J0D01*
G01*
X196653262Y-80050000D01*
G75*
G02*
X196925000Y-80321738I0J-271738D01*
G01*
G37*
G36*
G01*
X198975000Y-80321738D02*
X198975000Y-81278262D01*
G75*
G02*
X198703262Y-81550000I-271738J0D01*
G01*
X197996738Y-81550000D01*
G75*
G02*
X197725000Y-81278262I0J271738D01*
G01*
X197725000Y-80321738D01*
G75*
G02*
X197996738Y-80050000I271738J0D01*
G01*
X198703262Y-80050000D01*
G75*
G02*
X198975000Y-80321738I0J-271738D01*
G01*
G37*
%TD*%
%TO.C,C3*%
G36*
G01*
X207550000Y-65515625D02*
X207550000Y-66684375D01*
G75*
G02*
X207284375Y-66950000I-265625J0D01*
G01*
X205115625Y-66950000D01*
G75*
G02*
X204850000Y-66684375I0J265625D01*
G01*
X204850000Y-65515625D01*
G75*
G02*
X205115625Y-65250000I265625J0D01*
G01*
X207284375Y-65250000D01*
G75*
G02*
X207550000Y-65515625I0J-265625D01*
G01*
G37*
G36*
G01*
X211150000Y-65515625D02*
X211150000Y-66684375D01*
G75*
G02*
X210884375Y-66950000I-265625J0D01*
G01*
X208715625Y-66950000D01*
G75*
G02*
X208450000Y-66684375I0J265625D01*
G01*
X208450000Y-65515625D01*
G75*
G02*
X208715625Y-65250000I265625J0D01*
G01*
X210884375Y-65250000D01*
G75*
G02*
X211150000Y-65515625I0J-265625D01*
G01*
G37*
%TD*%
%TO.C,C4*%
G36*
G01*
X204050000Y-102315625D02*
X204050000Y-103484375D01*
G75*
G02*
X203784375Y-103750000I-265625J0D01*
G01*
X201615625Y-103750000D01*
G75*
G02*
X201350000Y-103484375I0J265625D01*
G01*
X201350000Y-102315625D01*
G75*
G02*
X201615625Y-102050000I265625J0D01*
G01*
X203784375Y-102050000D01*
G75*
G02*
X204050000Y-102315625I0J-265625D01*
G01*
G37*
G36*
G01*
X207650000Y-102315625D02*
X207650000Y-103484375D01*
G75*
G02*
X207384375Y-103750000I-265625J0D01*
G01*
X205215625Y-103750000D01*
G75*
G02*
X204950000Y-103484375I0J265625D01*
G01*
X204950000Y-102315625D01*
G75*
G02*
X205215625Y-102050000I265625J0D01*
G01*
X207384375Y-102050000D01*
G75*
G02*
X207650000Y-102315625I0J-265625D01*
G01*
G37*
%TD*%
%TO.C,C5*%
G36*
G01*
X191121738Y-92075000D02*
X192078262Y-92075000D01*
G75*
G02*
X192350000Y-92346738I0J-271738D01*
G01*
X192350000Y-93053262D01*
G75*
G02*
X192078262Y-93325000I-271738J0D01*
G01*
X191121738Y-93325000D01*
G75*
G02*
X190850000Y-93053262I0J271738D01*
G01*
X190850000Y-92346738D01*
G75*
G02*
X191121738Y-92075000I271738J0D01*
G01*
G37*
G36*
G01*
X191121738Y-94125000D02*
X192078262Y-94125000D01*
G75*
G02*
X192350000Y-94396738I0J-271738D01*
G01*
X192350000Y-95103262D01*
G75*
G02*
X192078262Y-95375000I-271738J0D01*
G01*
X191121738Y-95375000D01*
G75*
G02*
X190850000Y-95103262I0J271738D01*
G01*
X190850000Y-94396738D01*
G75*
G02*
X191121738Y-94125000I271738J0D01*
G01*
G37*
%TD*%
%TO.C,C6*%
G36*
G01*
X193384375Y-84250000D02*
X192215625Y-84250000D01*
G75*
G02*
X191950000Y-83984375I0J265625D01*
G01*
X191950000Y-81815625D01*
G75*
G02*
X192215625Y-81550000I265625J0D01*
G01*
X193384375Y-81550000D01*
G75*
G02*
X193650000Y-81815625I0J-265625D01*
G01*
X193650000Y-83984375D01*
G75*
G02*
X193384375Y-84250000I-265625J0D01*
G01*
G37*
G36*
G01*
X193384375Y-80650000D02*
X192215625Y-80650000D01*
G75*
G02*
X191950000Y-80384375I0J265625D01*
G01*
X191950000Y-78215625D01*
G75*
G02*
X192215625Y-77950000I265625J0D01*
G01*
X193384375Y-77950000D01*
G75*
G02*
X193650000Y-78215625I0J-265625D01*
G01*
X193650000Y-80384375D01*
G75*
G02*
X193384375Y-80650000I-265625J0D01*
G01*
G37*
%TD*%
D10*
%TO.C,IC2*%
X209215000Y-88875000D03*
X207945000Y-88875000D03*
X206675000Y-88875000D03*
X205405000Y-88875000D03*
X204135000Y-88875000D03*
X202865000Y-88875000D03*
X201595000Y-88875000D03*
X200325000Y-88875000D03*
X199055000Y-88875000D03*
X197785000Y-88875000D03*
X197785000Y-98325000D03*
X199055000Y-98325000D03*
X200325000Y-98325000D03*
X201595000Y-98325000D03*
X202865000Y-98325000D03*
X204135000Y-98325000D03*
X205405000Y-98325000D03*
X206675000Y-98325000D03*
X207945000Y-98325000D03*
X209215000Y-98325000D03*
%TD*%
D11*
%TO.C,J0*%
X215300000Y-99700000D03*
D12*
X215300000Y-96930000D03*
X215300000Y-94160000D03*
X215300000Y-91390000D03*
X215300000Y-88620000D03*
X215300000Y-85850000D03*
X215300000Y-83080000D03*
X215300000Y-80310000D03*
X215300000Y-77540000D03*
X215300000Y-74770000D03*
X215300000Y-72000000D03*
X215300000Y-69230000D03*
X215300000Y-66460000D03*
X217840000Y-98315000D03*
X217840000Y-95545000D03*
X217840000Y-92775000D03*
X217840000Y-90005000D03*
X217840000Y-87235000D03*
X217840000Y-84465000D03*
X217840000Y-81695000D03*
X217840000Y-78925000D03*
X217840000Y-76155000D03*
X217840000Y-73385000D03*
X217840000Y-70615000D03*
X217840000Y-67845000D03*
D13*
X216570000Y-106600000D03*
X216570000Y-59560000D03*
%TD*%
D14*
%TO.C,J1*%
X162700000Y-97600000D03*
D15*
X172100000Y-97700000D03*
D14*
X164700000Y-90200000D03*
D16*
X163800000Y-93900000D03*
X170800000Y-93900000D03*
%TD*%
D17*
%TO.C,J2*%
X164800000Y-65700000D03*
D18*
X169300000Y-65700000D03*
D19*
X161650000Y-69950000D03*
X161650000Y-61450000D03*
%TD*%
D17*
%TO.C,J3*%
X164800000Y-80200000D03*
D18*
X169300000Y-80200000D03*
D19*
X161650000Y-84450000D03*
X161650000Y-75950000D03*
%TD*%
%TO.C,R0*%
G36*
G01*
X178825000Y-90678262D02*
X178825000Y-89721738D01*
G75*
G02*
X179096738Y-89450000I271738J0D01*
G01*
X179803262Y-89450000D01*
G75*
G02*
X180075000Y-89721738I0J-271738D01*
G01*
X180075000Y-90678262D01*
G75*
G02*
X179803262Y-90950000I-271738J0D01*
G01*
X179096738Y-90950000D01*
G75*
G02*
X178825000Y-90678262I0J271738D01*
G01*
G37*
G36*
G01*
X180875000Y-90678262D02*
X180875000Y-89721738D01*
G75*
G02*
X181146738Y-89450000I271738J0D01*
G01*
X181853262Y-89450000D01*
G75*
G02*
X182125000Y-89721738I0J-271738D01*
G01*
X182125000Y-90678262D01*
G75*
G02*
X181853262Y-90950000I-271738J0D01*
G01*
X181146738Y-90950000D01*
G75*
G02*
X180875000Y-90678262I0J271738D01*
G01*
G37*
%TD*%
%TO.C,R1*%
G36*
G01*
X180875000Y-98178262D02*
X180875000Y-97221738D01*
G75*
G02*
X181146738Y-96950000I271738J0D01*
G01*
X181853262Y-96950000D01*
G75*
G02*
X182125000Y-97221738I0J-271738D01*
G01*
X182125000Y-98178262D01*
G75*
G02*
X181853262Y-98450000I-271738J0D01*
G01*
X181146738Y-98450000D01*
G75*
G02*
X180875000Y-98178262I0J271738D01*
G01*
G37*
G36*
G01*
X178825000Y-98178262D02*
X178825000Y-97221738D01*
G75*
G02*
X179096738Y-96950000I271738J0D01*
G01*
X179803262Y-96950000D01*
G75*
G02*
X180075000Y-97221738I0J-271738D01*
G01*
X180075000Y-98178262D01*
G75*
G02*
X179803262Y-98450000I-271738J0D01*
G01*
X179096738Y-98450000D01*
G75*
G02*
X178825000Y-98178262I0J271738D01*
G01*
G37*
%TD*%
%TO.C,R2*%
G36*
G01*
X208625000Y-103378262D02*
X208625000Y-102421738D01*
G75*
G02*
X208896738Y-102150000I271738J0D01*
G01*
X209603262Y-102150000D01*
G75*
G02*
X209875000Y-102421738I0J-271738D01*
G01*
X209875000Y-103378262D01*
G75*
G02*
X209603262Y-103650000I-271738J0D01*
G01*
X208896738Y-103650000D01*
G75*
G02*
X208625000Y-103378262I0J271738D01*
G01*
G37*
G36*
G01*
X210675000Y-103378262D02*
X210675000Y-102421738D01*
G75*
G02*
X210946738Y-102150000I271738J0D01*
G01*
X211653262Y-102150000D01*
G75*
G02*
X211925000Y-102421738I0J-271738D01*
G01*
X211925000Y-103378262D01*
G75*
G02*
X211653262Y-103650000I-271738J0D01*
G01*
X210946738Y-103650000D01*
G75*
G02*
X210675000Y-103378262I0J271738D01*
G01*
G37*
%TD*%
%TO.C,R3*%
G36*
G01*
X188575000Y-98021738D02*
X188575000Y-98978262D01*
G75*
G02*
X188303262Y-99250000I-271738J0D01*
G01*
X187596738Y-99250000D01*
G75*
G02*
X187325000Y-98978262I0J271738D01*
G01*
X187325000Y-98021738D01*
G75*
G02*
X187596738Y-97750000I271738J0D01*
G01*
X188303262Y-97750000D01*
G75*
G02*
X188575000Y-98021738I0J-271738D01*
G01*
G37*
G36*
G01*
X190625000Y-98021738D02*
X190625000Y-98978262D01*
G75*
G02*
X190353262Y-99250000I-271738J0D01*
G01*
X189646738Y-99250000D01*
G75*
G02*
X189375000Y-98978262I0J271738D01*
G01*
X189375000Y-98021738D01*
G75*
G02*
X189646738Y-97750000I271738J0D01*
G01*
X190353262Y-97750000D01*
G75*
G02*
X190625000Y-98021738I0J-271738D01*
G01*
G37*
%TD*%
%TO.C,R4*%
G36*
G01*
X182175000Y-93621738D02*
X182175000Y-94578262D01*
G75*
G02*
X181903262Y-94850000I-271738J0D01*
G01*
X181196738Y-94850000D01*
G75*
G02*
X180925000Y-94578262I0J271738D01*
G01*
X180925000Y-93621738D01*
G75*
G02*
X181196738Y-93350000I271738J0D01*
G01*
X181903262Y-93350000D01*
G75*
G02*
X182175000Y-93621738I0J-271738D01*
G01*
G37*
G36*
G01*
X180125000Y-93621738D02*
X180125000Y-94578262D01*
G75*
G02*
X179853262Y-94850000I-271738J0D01*
G01*
X179146738Y-94850000D01*
G75*
G02*
X178875000Y-94578262I0J271738D01*
G01*
X178875000Y-93621738D01*
G75*
G02*
X179146738Y-93350000I271738J0D01*
G01*
X179853262Y-93350000D01*
G75*
G02*
X180125000Y-93621738I0J-271738D01*
G01*
G37*
%TD*%
%TO.C,R5*%
G36*
G01*
X197775000Y-84578262D02*
X197775000Y-83621738D01*
G75*
G02*
X198046738Y-83350000I271738J0D01*
G01*
X198753262Y-83350000D01*
G75*
G02*
X199025000Y-83621738I0J-271738D01*
G01*
X199025000Y-84578262D01*
G75*
G02*
X198753262Y-84850000I-271738J0D01*
G01*
X198046738Y-84850000D01*
G75*
G02*
X197775000Y-84578262I0J271738D01*
G01*
G37*
G36*
G01*
X195725000Y-84578262D02*
X195725000Y-83621738D01*
G75*
G02*
X195996738Y-83350000I271738J0D01*
G01*
X196703262Y-83350000D01*
G75*
G02*
X196975000Y-83621738I0J-271738D01*
G01*
X196975000Y-84578262D01*
G75*
G02*
X196703262Y-84850000I-271738J0D01*
G01*
X195996738Y-84850000D01*
G75*
G02*
X195725000Y-84578262I0J271738D01*
G01*
G37*
%TD*%
%TO.C,R6*%
G36*
G01*
X199025000Y-77021738D02*
X199025000Y-77978262D01*
G75*
G02*
X198753262Y-78250000I-271738J0D01*
G01*
X198046738Y-78250000D01*
G75*
G02*
X197775000Y-77978262I0J271738D01*
G01*
X197775000Y-77021738D01*
G75*
G02*
X198046738Y-76750000I271738J0D01*
G01*
X198753262Y-76750000D01*
G75*
G02*
X199025000Y-77021738I0J-271738D01*
G01*
G37*
G36*
G01*
X196975000Y-77021738D02*
X196975000Y-77978262D01*
G75*
G02*
X196703262Y-78250000I-271738J0D01*
G01*
X195996738Y-78250000D01*
G75*
G02*
X195725000Y-77978262I0J271738D01*
G01*
X195725000Y-77021738D01*
G75*
G02*
X195996738Y-76750000I271738J0D01*
G01*
X196703262Y-76750000D01*
G75*
G02*
X196975000Y-77021738I0J-271738D01*
G01*
G37*
%TD*%
%TO.C,R7*%
G36*
G01*
X192775000Y-98021738D02*
X192775000Y-98978262D01*
G75*
G02*
X192503262Y-99250000I-271738J0D01*
G01*
X191796738Y-99250000D01*
G75*
G02*
X191525000Y-98978262I0J271738D01*
G01*
X191525000Y-98021738D01*
G75*
G02*
X191796738Y-97750000I271738J0D01*
G01*
X192503262Y-97750000D01*
G75*
G02*
X192775000Y-98021738I0J-271738D01*
G01*
G37*
G36*
G01*
X194825000Y-98021738D02*
X194825000Y-98978262D01*
G75*
G02*
X194553262Y-99250000I-271738J0D01*
G01*
X193846738Y-99250000D01*
G75*
G02*
X193575000Y-98978262I0J271738D01*
G01*
X193575000Y-98021738D01*
G75*
G02*
X193846738Y-97750000I271738J0D01*
G01*
X194553262Y-97750000D01*
G75*
G02*
X194825000Y-98021738I0J-271738D01*
G01*
G37*
%TD*%
%TO.C,R8*%
G36*
G01*
X211778262Y-82375000D02*
X210821738Y-82375000D01*
G75*
G02*
X210550000Y-82103262I0J271738D01*
G01*
X210550000Y-81396738D01*
G75*
G02*
X210821738Y-81125000I271738J0D01*
G01*
X211778262Y-81125000D01*
G75*
G02*
X212050000Y-81396738I0J-271738D01*
G01*
X212050000Y-82103262D01*
G75*
G02*
X211778262Y-82375000I-271738J0D01*
G01*
G37*
G36*
G01*
X211778262Y-80325000D02*
X210821738Y-80325000D01*
G75*
G02*
X210550000Y-80053262I0J271738D01*
G01*
X210550000Y-79346738D01*
G75*
G02*
X210821738Y-79075000I271738J0D01*
G01*
X211778262Y-79075000D01*
G75*
G02*
X212050000Y-79346738I0J-271738D01*
G01*
X212050000Y-80053262D01*
G75*
G02*
X211778262Y-80325000I-271738J0D01*
G01*
G37*
%TD*%
%TO.C,R9*%
G36*
G01*
X194578262Y-88025000D02*
X193621738Y-88025000D01*
G75*
G02*
X193350000Y-87753262I0J271738D01*
G01*
X193350000Y-87046738D01*
G75*
G02*
X193621738Y-86775000I271738J0D01*
G01*
X194578262Y-86775000D01*
G75*
G02*
X194850000Y-87046738I0J-271738D01*
G01*
X194850000Y-87753262D01*
G75*
G02*
X194578262Y-88025000I-271738J0D01*
G01*
G37*
G36*
G01*
X194578262Y-90075000D02*
X193621738Y-90075000D01*
G75*
G02*
X193350000Y-89803262I0J271738D01*
G01*
X193350000Y-89096738D01*
G75*
G02*
X193621738Y-88825000I271738J0D01*
G01*
X194578262Y-88825000D01*
G75*
G02*
X194850000Y-89096738I0J-271738D01*
G01*
X194850000Y-89803262D01*
G75*
G02*
X194578262Y-90075000I-271738J0D01*
G01*
G37*
%TD*%
%TO.C,R10*%
G36*
G01*
X191121738Y-86775000D02*
X192078262Y-86775000D01*
G75*
G02*
X192350000Y-87046738I0J-271738D01*
G01*
X192350000Y-87753262D01*
G75*
G02*
X192078262Y-88025000I-271738J0D01*
G01*
X191121738Y-88025000D01*
G75*
G02*
X190850000Y-87753262I0J271738D01*
G01*
X190850000Y-87046738D01*
G75*
G02*
X191121738Y-86775000I271738J0D01*
G01*
G37*
G36*
G01*
X191121738Y-88825000D02*
X192078262Y-88825000D01*
G75*
G02*
X192350000Y-89096738I0J-271738D01*
G01*
X192350000Y-89803262D01*
G75*
G02*
X192078262Y-90075000I-271738J0D01*
G01*
X191121738Y-90075000D01*
G75*
G02*
X190850000Y-89803262I0J271738D01*
G01*
X190850000Y-89096738D01*
G75*
G02*
X191121738Y-88825000I271738J0D01*
G01*
G37*
%TD*%
%TO.C,R11*%
G36*
G01*
X194578262Y-93325000D02*
X193621738Y-93325000D01*
G75*
G02*
X193350000Y-93053262I0J271738D01*
G01*
X193350000Y-92346738D01*
G75*
G02*
X193621738Y-92075000I271738J0D01*
G01*
X194578262Y-92075000D01*
G75*
G02*
X194850000Y-92346738I0J-271738D01*
G01*
X194850000Y-93053262D01*
G75*
G02*
X194578262Y-93325000I-271738J0D01*
G01*
G37*
G36*
G01*
X194578262Y-95375000D02*
X193621738Y-95375000D01*
G75*
G02*
X193350000Y-95103262I0J271738D01*
G01*
X193350000Y-94396738D01*
G75*
G02*
X193621738Y-94125000I271738J0D01*
G01*
X194578262Y-94125000D01*
G75*
G02*
X194850000Y-94396738I0J-271738D01*
G01*
X194850000Y-95103262D01*
G75*
G02*
X194578262Y-95375000I-271738J0D01*
G01*
G37*
%TD*%
%TO.C,R12*%
G36*
G01*
X188425000Y-86378262D02*
X188425000Y-85421738D01*
G75*
G02*
X188696738Y-85150000I271738J0D01*
G01*
X189403262Y-85150000D01*
G75*
G02*
X189675000Y-85421738I0J-271738D01*
G01*
X189675000Y-86378262D01*
G75*
G02*
X189403262Y-86650000I-271738J0D01*
G01*
X188696738Y-86650000D01*
G75*
G02*
X188425000Y-86378262I0J271738D01*
G01*
G37*
G36*
G01*
X186375000Y-86378262D02*
X186375000Y-85421738D01*
G75*
G02*
X186646738Y-85150000I271738J0D01*
G01*
X187353262Y-85150000D01*
G75*
G02*
X187625000Y-85421738I0J-271738D01*
G01*
X187625000Y-86378262D01*
G75*
G02*
X187353262Y-86650000I-271738J0D01*
G01*
X186646738Y-86650000D01*
G75*
G02*
X186375000Y-86378262I0J271738D01*
G01*
G37*
%TD*%
%TO.C,R13*%
G36*
G01*
X176475000Y-65221738D02*
X176475000Y-66178262D01*
G75*
G02*
X176203262Y-66450000I-271738J0D01*
G01*
X175496738Y-66450000D01*
G75*
G02*
X175225000Y-66178262I0J271738D01*
G01*
X175225000Y-65221738D01*
G75*
G02*
X175496738Y-64950000I271738J0D01*
G01*
X176203262Y-64950000D01*
G75*
G02*
X176475000Y-65221738I0J-271738D01*
G01*
G37*
G36*
G01*
X174425000Y-65221738D02*
X174425000Y-66178262D01*
G75*
G02*
X174153262Y-66450000I-271738J0D01*
G01*
X173446738Y-66450000D01*
G75*
G02*
X173175000Y-66178262I0J271738D01*
G01*
X173175000Y-65221738D01*
G75*
G02*
X173446738Y-64950000I271738J0D01*
G01*
X174153262Y-64950000D01*
G75*
G02*
X174425000Y-65221738I0J-271738D01*
G01*
G37*
%TD*%
%TO.C,R14*%
G36*
G01*
X204725000Y-73821738D02*
X204725000Y-74778262D01*
G75*
G02*
X204453262Y-75050000I-271738J0D01*
G01*
X203746738Y-75050000D01*
G75*
G02*
X203475000Y-74778262I0J271738D01*
G01*
X203475000Y-73821738D01*
G75*
G02*
X203746738Y-73550000I271738J0D01*
G01*
X204453262Y-73550000D01*
G75*
G02*
X204725000Y-73821738I0J-271738D01*
G01*
G37*
G36*
G01*
X206775000Y-73821738D02*
X206775000Y-74778262D01*
G75*
G02*
X206503262Y-75050000I-271738J0D01*
G01*
X205796738Y-75050000D01*
G75*
G02*
X205525000Y-74778262I0J271738D01*
G01*
X205525000Y-73821738D01*
G75*
G02*
X205796738Y-73550000I271738J0D01*
G01*
X206503262Y-73550000D01*
G75*
G02*
X206775000Y-73821738I0J-271738D01*
G01*
G37*
%TD*%
%TO.C,R15*%
G36*
G01*
X203525000Y-71478262D02*
X203525000Y-70521738D01*
G75*
G02*
X203796738Y-70250000I271738J0D01*
G01*
X204503262Y-70250000D01*
G75*
G02*
X204775000Y-70521738I0J-271738D01*
G01*
X204775000Y-71478262D01*
G75*
G02*
X204503262Y-71750000I-271738J0D01*
G01*
X203796738Y-71750000D01*
G75*
G02*
X203525000Y-71478262I0J271738D01*
G01*
G37*
G36*
G01*
X205575000Y-71478262D02*
X205575000Y-70521738D01*
G75*
G02*
X205846738Y-70250000I271738J0D01*
G01*
X206553262Y-70250000D01*
G75*
G02*
X206825000Y-70521738I0J-271738D01*
G01*
X206825000Y-71478262D01*
G75*
G02*
X206553262Y-71750000I-271738J0D01*
G01*
X205846738Y-71750000D01*
G75*
G02*
X205575000Y-71478262I0J271738D01*
G01*
G37*
%TD*%
D12*
%TO.C,S1*%
X180700000Y-85900000D03*
X183240000Y-85900000D03*
X178160000Y-85900000D03*
%TD*%
D20*
%TO.C,U1*%
X201590000Y-83412000D03*
X202860000Y-83412000D03*
X204130000Y-83412000D03*
X205400000Y-83412000D03*
X206670000Y-83412000D03*
X207940000Y-83412000D03*
X209210000Y-83412000D03*
X209210000Y-77988000D03*
X207940000Y-77988000D03*
X206670000Y-77988000D03*
X205400000Y-77988000D03*
X204130000Y-77988000D03*
X202860000Y-77988000D03*
X201590000Y-77988000D03*
%TD*%
D12*
%TO.C,VR1*%
X187000000Y-79000000D03*
X187000000Y-76500000D03*
X187000000Y-74000000D03*
D21*
X180000000Y-80900000D03*
X180000000Y-72100000D03*
%TD*%
M02*
